<svg width="457" height="127" viewBox="0 0 457 127" fill="none" xmlns="http://www.w3.org/2000/svg">
<g clip-path="url(#clip0_110_531)">
<path opacity="0.8" d="M148.403 58.6806H149.446C151.91 58.6806 152.637 57.3576 153.301 55.8457L158.893 42.3331H156.808L152.732 52.3493L148.277 42.3331H146.16L151.753 54.6803L151.5 55.2788C151.152 56.0662 150.584 56.8536 149.414 56.8536H148.403V58.6806ZM168.944 46.3648H167.08V52.4991C166.18 52.759 165.256 52.9164 164.142 52.9164C162.625 52.9164 161.456 52.0659 161.456 50.2075V46.3334H159.592V50.2075C159.592 53.1684 161.393 54.6488 164.142 54.6488C165.287 54.6488 166.204 54.4993 167.08 54.2392V58.4601H168.944V46.3648ZM177.452 58.712C179.916 58.712 181.717 57.4836 182.286 55.6568L180.485 55.1528C180.011 56.4127 178.913 57.0427 177.452 57.0427C175.264 57.0427 173.755 55.6332 173.668 53.0424H182.475V52.255C182.475 47.7507 179.79 46.2074 177.262 46.2074C173.976 46.2074 171.796 48.7901 171.796 52.507C171.796 56.2236 173.945 58.712 177.452 58.712ZM173.668 51.4359C173.795 49.5539 175.129 47.8767 177.262 47.8767C179.284 47.8767 180.58 49.3886 180.58 51.4359H173.668ZM194.316 41.8291C193.723 42.3252 192.839 42.3252 191.599 42.3173C191.196 42.3173 190.753 42.3173 190.272 42.3331C186.575 42.4276 184.742 45.2309 184.742 50.6171V51.9085C184.742 56.3813 186.923 58.712 190.177 58.712C193.423 58.712 195.58 56.3654 195.58 52.5699C195.58 48.7587 193.392 46.7428 190.556 46.7428C188.889 46.7428 187.333 47.4356 186.512 48.9476H186.354C186.606 45.8294 187.775 44.1599 190.303 44.0655C192.546 43.971 194.158 44.0339 195.264 42.963L194.316 41.8291ZM190.177 57.0427C187.965 57.0427 186.606 55.2788 186.606 52.5699C186.646 49.924 187.981 48.4121 190.145 48.4121C192.365 48.4121 193.715 49.924 193.715 52.5699C193.715 55.2945 192.373 57.0427 190.177 57.0427ZM200.295 46.3648H198.431V58.4601H200.295V53.2944H206.109V58.4601H207.974V46.3648H206.109V51.5619H200.295V46.3648ZM213.241 50.7431V46.3648H211.377V58.4601H216.465C219.308 58.4601 220.857 56.7276 220.857 54.5543C220.857 52.3493 219.308 50.7431 216.465 50.7431H213.241ZM222.784 58.4601H224.648V46.3648H222.784V58.4601ZM213.241 52.4753H216.465C217.941 52.4753 218.992 53.3732 218.992 54.6488C218.992 55.8693 217.941 56.7276 216.465 56.7276H213.241V52.4753ZM229.924 55.7197V46.3648H228.06V58.4601H230.239L236.053 49.1052V58.4601H237.917V46.3648H235.77L229.924 55.7197ZM234.536 42.3331C234.536 43.1519 234.096 43.8764 232.99 43.8764C231.883 43.8764 231.473 43.1519 231.473 42.3331H229.734C229.734 44.0339 230.998 45.2309 232.99 45.2309C235.012 45.2309 236.275 44.0339 236.275 42.3331H234.536ZM257.13 46.3648H255.265V56.7276H249.452V46.3648H247.587V58.4601H256.972V62.3658H258.836V56.7276H257.13V46.3648ZM266.664 58.712C269.129 58.712 270.929 57.4836 271.499 55.6568L269.697 55.1528C269.224 56.4127 268.126 57.0427 266.664 57.0427C264.476 57.0427 262.968 55.6332 262.881 53.0424H271.687V52.255C271.687 47.7507 269.002 46.2074 266.474 46.2074C263.188 46.2074 261.008 48.7901 261.008 52.507C261.008 56.2236 263.158 58.712 266.664 58.712ZM262.881 51.4359C263.006 49.5539 264.343 47.8767 266.474 47.8767C268.496 47.8767 269.792 49.3886 269.792 51.4359H262.881ZM276.388 46.3648H274.524V58.4601H276.388V53.2944H282.202V58.4601H284.064V46.3648H282.202V51.5619H276.388V46.3648ZM285.82 48.0973H289.831V58.4601H291.696V48.0973H295.677V46.3648H285.82V48.0973ZM298.395 62.9958H300.26V56.6016H300.417C300.83 57.263 301.618 58.712 303.956 58.712C306.989 58.712 309.106 56.2867 309.106 52.4439C309.106 48.6327 306.989 46.2074 303.926 46.2074C301.556 46.2074 300.83 47.6562 300.417 48.2861H300.197V46.3648H298.395V62.9958ZM300.229 52.4124C300.229 49.7035 301.428 47.8767 303.703 47.8767C306.073 47.8767 307.242 49.8611 307.242 52.4124C307.242 54.9952 306.043 57.0427 303.703 57.0427C301.461 57.0427 300.229 55.1528 300.229 52.4124ZM151.31 74.146C153.206 74.1619 154.335 75.8941 154.58 77.7054H150.078V79.4376H154.596C154.399 81.2803 153.229 83.1388 151.31 83.1545C149.888 83.1388 148.561 81.9103 148.561 80.5401H146.729C146.729 82.9497 148.656 84.8869 151.31 84.8869C154.628 84.8869 156.492 82.0756 156.492 78.8708V78.4297C156.492 75.2249 154.628 72.4137 151.31 72.4137C148.941 72.4137 146.729 74.3508 146.729 76.4455H148.561C148.561 75.1934 150.046 74.1619 151.31 74.146ZM164.26 84.9184C166.946 84.9184 168.715 83.2805 169.031 81.1386H167.167C166.82 82.4614 165.714 83.2491 164.26 83.2491C162.049 83.2491 160.627 81.4221 160.627 78.6188C160.627 75.8784 162.08 74.0831 164.26 74.0831C165.903 74.0831 166.883 75.091 167.167 76.1935H169.031C168.715 73.9256 166.788 72.4137 164.229 72.4137C160.943 72.4137 158.763 74.9965 158.763 78.6817C158.763 82.304 160.848 84.9184 164.26 84.9184ZM170.801 74.3036H174.813V84.6664H176.677V74.3036H180.659V72.5712H170.801V74.3036ZM187.835 84.9184C190.299 84.9184 192.1 83.6899 192.669 81.8631L190.868 81.3592C190.394 82.6191 189.296 83.2491 187.835 83.2491C185.647 83.2491 184.138 81.8395 184.051 79.2487H192.858V78.4613C192.858 73.9571 190.173 72.4137 187.645 72.4137C184.359 72.4137 182.179 74.9965 182.179 78.7133C182.179 82.43 184.328 84.9184 187.835 84.9184ZM184.051 77.6423C184.177 75.7603 185.512 74.0831 187.645 74.0831C189.667 74.0831 190.963 75.595 190.963 77.6423H184.051ZM194.565 74.3036H198.577V84.6664H200.441V74.3036H204.423V72.5712H194.565V74.3036ZM209.005 81.926V72.5712H207.141V84.6664H209.323L215.136 75.3116V84.6664H216.999V72.5712H214.851L209.005 81.926ZM229.766 72.5712H227.902V78.7055C227.002 78.9653 226.078 79.1228 224.964 79.1228C223.447 79.1228 222.278 78.2723 222.278 76.4138V72.5397H220.414V76.4138C220.414 79.3747 222.216 80.8552 224.964 80.8552C226.108 80.8552 227.024 80.7056 227.902 80.4456V84.6664H229.766V72.5712ZM238.273 84.9184C240.738 84.9184 242.538 83.6899 243.108 81.8631L241.307 81.3592C240.833 82.6191 239.735 83.2491 238.273 83.2491C236.085 83.2491 234.577 81.8395 234.49 79.2487H243.296V78.4613C243.296 73.9571 240.611 72.4137 238.083 72.4137C234.797 72.4137 232.617 74.9965 232.617 78.7133C232.617 82.43 234.767 84.9184 238.273 84.9184ZM234.49 77.6423C234.615 75.7603 235.952 74.0831 238.083 74.0831C240.105 74.0831 241.402 75.595 241.402 77.6423H234.49ZM251.061 84.9184C253.747 84.9184 255.516 83.2805 255.833 81.1386H253.969C253.621 82.4614 252.515 83.2491 251.061 83.2491C248.849 83.2491 247.428 81.4221 247.428 78.6188C247.428 75.8784 248.881 74.0831 251.061 74.0831C252.705 74.0831 253.684 75.091 253.969 76.1935H255.833C255.516 73.9256 253.589 72.4137 251.031 72.4137C247.745 72.4137 245.563 74.9965 245.563 78.6817C245.563 82.304 247.65 84.9184 251.061 84.9184ZM258.557 84.6664H260.422V79.5636H262.096L266.078 84.6664H268.478L263.518 78.3982L268.415 72.5712H266.015L261.653 77.8314H260.422V72.5712H258.557V84.6664ZM274.934 84.9184C278.22 84.9184 280.433 82.43 280.433 78.6817C280.433 74.9019 278.22 72.4137 274.934 72.4137C271.649 72.4137 269.436 74.9019 269.436 78.6817C269.436 82.43 271.649 84.9184 274.934 84.9184ZM274.934 83.2491C272.437 83.2491 271.301 81.1072 271.301 78.6817C271.301 76.2564 272.437 74.0831 274.934 74.0831C277.43 74.0831 278.568 76.2564 278.568 78.6817C278.568 81.1072 277.43 83.2491 274.934 83.2491ZM285.142 81.926V72.5712H283.278V84.6664H285.458L291.271 75.3116V84.6664H293.136V72.5712H290.986L285.142 81.926ZM289.755 68.5394C289.755 69.3583 289.312 70.0828 288.206 70.0828C287.1 70.0828 286.689 69.3583 286.689 68.5394H284.952C284.952 70.2402 286.216 71.4372 288.206 71.4372C290.228 71.4372 291.492 70.2402 291.492 68.5394H289.755ZM302.805 84.6664H304.67V79.5636H306.344L310.326 84.6664H312.726L307.766 78.3982L312.663 72.5712H310.263L305.901 77.8314H304.67V72.5712H302.805V84.6664ZM319.183 84.9184C322.469 84.9184 324.679 82.43 324.679 78.6817C324.679 74.9019 322.469 72.4137 319.183 72.4137C315.897 72.4137 313.684 74.9019 313.684 78.6817C313.684 82.43 315.897 84.9184 319.183 84.9184ZM319.183 83.2491C316.685 83.2491 315.549 81.1072 315.549 78.6817C315.549 76.2564 316.685 74.0831 319.183 74.0831C321.678 74.0831 322.816 76.2564 322.816 78.6817C322.816 81.1072 321.678 83.2491 319.183 83.2491ZM332.454 84.9184C335.139 84.9184 336.908 83.2805 337.226 81.1386H335.362C335.014 82.4614 333.908 83.2491 332.454 83.2491C330.242 83.2491 328.82 81.4221 328.82 78.6188C328.82 75.8784 330.274 74.0831 332.454 74.0831C334.098 74.0831 335.076 75.091 335.362 76.1935H337.226C336.908 73.9256 334.981 72.4137 332.423 72.4137C329.137 72.4137 326.956 74.9965 326.956 78.6817C326.956 82.304 329.042 84.9184 332.454 84.9184ZM346.584 82.1466L342.415 72.5712H339.95V84.6664H341.814V75.2406L345.826 84.6664H347.343L351.357 75.4139V84.6664H353.221V72.5712H350.819L346.584 82.1466ZM361.72 84.9184C364.185 84.9184 365.985 83.6899 366.553 81.8631L364.753 81.3592C364.278 82.6191 363.18 83.2491 361.72 83.2491C359.532 83.2491 358.024 81.8395 357.937 79.2487H366.743V78.4613C366.743 73.9571 364.058 72.4137 361.53 72.4137C358.244 72.4137 356.064 74.9965 356.064 78.7133C356.064 82.43 358.212 84.9184 361.72 84.9184ZM357.937 77.6423C358.062 75.7603 359.397 74.0831 361.53 74.0831C363.552 74.0831 364.848 75.595 364.848 77.6423H357.937ZM368.45 74.3036H372.461V84.6664H374.326V74.3036H378.307V72.5712H368.45V74.3036ZM385.326 84.9184C388.612 84.9184 390.822 82.43 390.822 78.6817C390.822 74.9019 388.612 72.4137 385.326 72.4137C382.04 72.4137 379.828 74.9019 379.828 78.6817C379.828 82.43 382.04 84.9184 385.326 84.9184ZM385.326 83.2491C382.829 83.2491 381.692 81.1072 381.692 78.6817C381.692 76.2564 382.829 74.0831 385.326 74.0831C387.822 74.0831 388.96 76.2564 388.96 78.6817C388.96 81.1072 387.822 83.2491 385.326 83.2491ZM392.594 84.6664H393.227C395.912 84.6664 396.687 82.5876 396.86 78.6188L397.051 74.3036H401.505V84.6664H403.37V72.5712H395.281L395.059 77.9257C394.901 81.9891 394.491 82.934 393.037 82.934H392.594V84.6664ZM411.717 84.9184C415.003 84.9184 417.215 82.43 417.215 78.6817C417.215 74.9019 415.003 72.4137 411.717 72.4137C408.431 72.4137 406.221 74.9019 406.221 78.6817C406.221 82.43 408.431 84.9184 411.717 84.9184ZM411.717 83.2491C409.222 83.2491 408.085 81.1072 408.085 78.6817C408.085 76.2564 409.222 74.0831 411.717 74.0831C414.214 74.0831 415.351 76.2564 415.351 78.6817C415.351 81.1072 414.214 83.2491 411.717 83.2491ZM427.55 72.5712H420.06V84.6664H421.925V74.3036H427.55V72.5712ZM432.134 81.926V72.5712H430.27V84.6664H432.45L438.263 75.3116V84.6664H440.128V72.5712H437.98L432.134 81.926ZM445.408 81.926V72.5712H443.543V84.6664H445.723L451.537 75.3116V84.6664H453.401V72.5712H451.252L445.408 81.926Z" fill="#1C1E23"/>
<path d="M123.767 63.3538C123.767 50.8236 120.138 38.5747 113.338 28.1563C106.538 17.7378 96.8733 9.61765 85.5654 4.82255C74.2576 0.0274502 61.8149 -1.22717 49.8108 1.21735C37.8064 3.66187 26.7798 9.69574 18.1253 18.5559C9.47074 27.4161 3.57689 38.7048 1.1891 50.9941C-1.19869 63.2835 0.0268131 76.0218 4.71064 87.5981C9.39446 99.1747 17.3262 109.069 27.5029 116.031C37.6796 122.992 49.6441 126.707 61.8837 126.707C70.0106 126.708 78.058 125.07 85.5664 121.887C93.0747 118.703 99.8972 114.037 105.644 108.153C111.39 102.27 115.949 95.2861 119.058 87.5992C122.168 79.9124 123.768 71.6738 123.767 63.3538Z" fill="#B7ECB1"/>
<path d="M26.3562 49.916H29.7176L19.742 74.177H18.9769L8.80859 49.916H12.2061L19.3022 66.8816L26.3562 49.916Z" fill="#91BD9D"/>
<path d="M39.5684 64.5069V71.2908C39.5684 71.8334 39.749 72.1048 40.1105 72.1048C40.754 71.9832 41.3546 71.6895 41.8514 71.2537V73.1778C41.3208 73.5429 40.758 73.8568 40.1708 74.1152C39.748 74.2825 39.2987 74.3684 38.8455 74.368C37.5283 74.368 36.7512 73.8376 36.5142 72.7771C35.3355 73.7656 33.8632 74.3138 32.3397 74.3311C31.8397 74.3454 31.342 74.2557 30.8769 74.0668C30.412 73.8781 29.9894 73.5945 29.6349 73.2332C29.279 72.875 28.9994 72.445 28.8137 71.9705C28.6283 71.4962 28.5406 70.9876 28.5565 70.4767C28.5549 69.4745 28.9329 68.5107 29.6109 67.7878C30.4494 66.925 31.4844 66.2892 32.6228 65.9378L36.5565 64.5501V63.7052C36.5565 61.7936 35.6226 60.8314 33.7552 60.8314C32.0726 60.8314 30.4401 61.7196 28.8578 63.4956V60.0111C30.0626 58.5764 31.7794 57.857 34.0082 57.8527C35.4665 57.7862 36.898 58.2688 38.0322 59.2094C38.778 59.8849 39.2807 60.7969 39.4598 61.7996C39.5522 62.7029 39.5884 63.6113 39.5684 64.5192V64.5069ZM36.5565 70.9392V66.2152L34.4961 67.0292C33.6838 67.3146 32.9302 67.7517 32.2734 68.3182C31.8686 68.753 31.6429 69.3303 31.6429 69.9308C31.6429 70.5314 31.8686 71.1089 32.2734 71.5435C32.4851 71.7512 32.7357 71.9129 33.0101 72.0189C33.2843 72.1249 33.5767 72.1729 33.8697 72.1602C34.3798 72.1495 34.8828 72.035 35.3493 71.8233C35.8158 71.6115 36.2364 71.3069 36.5864 70.9269" fill="#91BD9D"/>
<path d="M47.7089 49.916H44.6367V74.0785H47.7089V49.916Z" fill="#91BD9D"/>
<path d="M71.3408 49.916H74.5034V74.0722H71.1058V55.2752L63.847 64.6121H63.2266L55.8835 55.2752V74.0722H52.5039V49.916H55.7027L63.5457 59.8387L71.3408 49.916Z" fill="#91BD9D"/>
<path d="M88.9335 64.5076V71.2912C88.9335 71.8339 89.1082 72.1052 89.4695 72.1052C90.113 71.9837 90.7135 71.6902 91.2104 71.2543V73.1783C90.6798 73.5435 90.1172 73.8572 89.5298 74.1157C89.1072 74.2836 88.6578 74.3694 88.2045 74.3686C86.8873 74.3686 86.1102 73.8383 85.8732 72.7775C84.6947 73.7661 83.2224 74.3142 81.6987 74.3315C81.1997 74.3467 80.7026 74.257 80.2385 74.0683C79.7745 73.8794 79.353 73.5956 79 73.2339C78.6431 72.8761 78.3622 72.4463 78.1758 71.9718C77.9891 71.4974 77.9006 70.9884 77.9157 70.4772C77.9141 69.4751 78.2918 68.5113 78.9699 67.7884C79.8084 66.9254 80.8436 66.2896 81.9818 65.9383L85.9215 64.5507V63.7059C85.9215 61.794 84.9818 60.8319 83.1144 60.8319C81.4316 60.8319 79.7991 61.72 78.2168 63.496V60.0118C79.4216 58.5769 81.1386 57.8574 83.3674 57.8532C84.8284 57.779 86.2649 58.2576 87.4033 59.1978C87.7722 59.5244 88.0819 59.9146 88.3189 60.3509C88.5759 60.7929 88.7497 61.2802 88.8309 61.7878C88.9264 62.6909 88.9646 63.5994 88.9454 64.5076H88.9335ZM85.9334 70.9273V66.2034L83.8672 67.0176C83.0574 67.304 82.306 67.7411 81.6506 68.3063C81.2395 68.7355 81.0063 69.3106 80.9997 69.9115C80.9928 70.5127 81.2132 71.0931 81.6144 71.5317C81.8265 71.7387 82.0771 71.9002 82.3515 72.006C82.6257 72.1121 82.9179 72.1605 83.2107 72.1484C83.7216 72.1373 84.2254 72.0224 84.6927 71.8107C85.16 71.599 85.5818 71.2946 85.9334 70.9151" fill="#91BD9D"/>
<path d="M97.2178 58.1617V61.8127L97.3864 61.5351C98.8763 59.0683 100.364 57.835 101.85 57.835C103.007 57.835 104.211 58.4331 105.465 59.6295L103.844 62.3985C102.772 61.3625 101.78 60.8445 100.868 60.8445C100.356 60.8562 99.8548 60.994 99.4061 61.2464C98.9572 61.4986 98.5744 61.8578 98.2901 62.2937C97.5585 63.2825 97.1743 64.4948 97.1998 65.735V74.0728H94.1094V58.1617H97.2178Z" fill="#91BD9D"/>
<path d="M109.222 51.4707C109.463 51.4669 109.702 51.5124 109.926 51.6046C110.149 51.6967 110.352 51.8336 110.523 52.0073C110.696 52.1765 110.833 52.3807 110.926 52.6066C111.018 52.8326 111.063 53.0759 111.059 53.3209C111.05 53.8085 110.857 54.2736 110.52 54.6185C110.183 54.9636 109.729 55.1616 109.252 55.171C109.017 55.1714 108.784 55.1218 108.568 55.0251C108.352 54.9285 108.159 54.787 107.999 54.6098C107.828 54.4405 107.691 54.2373 107.598 54.0127C107.505 53.7879 107.457 53.5464 107.457 53.3023C107.458 53.0612 107.507 52.8227 107.6 52.6014C107.693 52.3799 107.829 52.1799 107.999 52.0134C108.159 51.8362 108.352 51.6947 108.568 51.5981C108.784 51.5013 109.017 51.4517 109.252 51.4522L109.222 51.4707ZM107.698 58.162H110.776V74.0729H107.698V58.162Z" fill="#91BD9D"/>
<path d="M27.0185 49.2998H30.3799L20.4042 73.5608H19.6392L9.46484 49.2998H12.8683L19.9645 66.2652L27.0185 49.2998Z" fill="white"/>
<path d="M40.2284 63.8907V70.6745C40.2284 71.2172 40.4091 71.4886 40.7705 71.4886C41.4135 71.3658 42.0139 71.0723 42.5113 70.6375V72.5616C41.9807 72.9267 41.4182 73.2405 40.8308 73.499C40.4059 73.6665 39.9546 73.7522 39.4994 73.7518C38.1862 73.7518 37.4091 73.2214 37.1683 72.1606C35.9924 73.1502 34.5215 73.6986 32.9997 73.7149C32.4996 73.7296 32.002 73.6399 31.5369 73.4512C31.0718 73.2625 30.6492 72.9787 30.2949 72.617C29.939 72.2588 29.6593 71.8288 29.4739 71.3543C29.2883 70.88 29.2007 70.3712 29.2167 69.8605C29.2151 68.8582 29.5928 67.8945 30.2708 67.1716C31.1094 66.3088 32.1445 65.673 33.2828 65.3216L37.2164 63.9339V63.089C37.2164 61.1774 36.2826 60.2152 34.4154 60.2152C32.7366 60.2152 31.1021 61.1032 29.5119 62.8794V59.3949C30.7167 57.9602 32.4355 57.2406 34.6683 57.2365C36.1265 57.17 37.5582 57.6526 38.6922 58.5932C39.059 58.9202 39.3669 59.3107 39.6019 59.7465C39.8605 60.1882 40.0363 60.6756 40.12 61.1834C40.2122 62.0867 40.2484 62.9951 40.2284 63.903V63.8907ZM37.2164 70.323V65.599L35.1563 66.413C34.3438 66.6984 33.5901 67.1355 32.9334 67.7019C32.5259 68.1351 32.2982 68.7133 32.2982 69.3146C32.2982 69.9162 32.5259 70.4941 32.9334 70.9273C33.1451 71.135 33.3956 71.2966 33.67 71.4027C33.9444 71.5087 34.2368 71.5567 34.5298 71.544C35.0398 71.5327 35.5425 71.4178 36.0088 71.2061C36.4753 70.9945 36.8959 70.6901 37.2465 70.3107" fill="white"/>
<path d="M48.3652 49.2998H45.293V73.4621H48.3652V49.2998Z" fill="white"/>
<path d="M72.0047 49.2998H75.1612V73.456H71.7697V54.6588L64.5109 63.9957H63.8844L56.5473 54.6588V73.456H53.168V49.2998H56.3666L64.2098 59.2225L72.0047 49.2998Z" fill="white"/>
<path d="M89.5879 63.891V70.6748C89.5879 71.2175 89.7687 71.4888 90.1301 71.4888C90.7735 71.3673 91.3741 71.0735 91.8709 70.6377V72.5619C91.3403 72.9269 90.7778 73.2408 90.1903 73.4993C89.7675 73.6666 89.3182 73.7524 88.865 73.752C87.5478 73.752 86.7707 73.2217 86.5337 72.1611C85.3552 73.1497 83.8827 73.6978 82.3593 73.7151C81.8592 73.7295 81.3615 73.6398 80.8967 73.4509C80.4316 73.2622 80.009 72.9786 79.6545 72.6173C79.2986 72.2591 79.0189 71.8291 78.8333 71.3546C78.6477 70.8802 78.5601 70.3716 78.5761 69.8608C78.5745 68.8585 78.9524 67.8947 79.6304 67.1718C80.469 66.309 81.5039 65.6732 82.6424 65.3219L86.576 63.9341V63.0893C86.576 61.1776 85.6422 60.2155 83.7747 60.2155C82.0962 60.2155 80.4637 61.1036 78.8774 62.8796V59.3954C80.0822 57.9605 81.7989 57.241 84.0277 57.2368C85.4887 57.1636 86.9248 57.6422 88.0639 58.5812C88.804 59.2613 89.3055 60.1713 89.4915 61.1714C89.5839 62.0747 89.6201 62.983 89.5999 63.891H89.5879ZM86.5879 70.3109V65.5869L84.5278 66.401C83.7155 66.6864 82.9619 67.1234 82.3049 67.6899C81.8934 68.1191 81.6604 68.695 81.6547 69.2964C81.6491 69.8979 81.8713 70.4781 82.2749 70.9153C82.4867 71.1229 82.7372 71.2846 83.0114 71.3906C83.2858 71.4967 83.5782 71.5447 83.8712 71.532C84.3812 71.5207 84.8841 71.4058 85.3504 71.1941C85.8167 70.9824 86.2373 70.678 86.5879 70.2986" fill="white"/>
<path d="M97.8836 57.5445V61.1955L98.0522 60.9179C99.5381 58.4511 101.026 57.2178 102.516 57.2178C103.673 57.2178 104.877 57.8159 106.13 59.0123L104.51 61.7813C103.444 60.7454 102.45 60.2273 101.54 60.2273C101.028 60.239 100.527 60.3768 100.078 60.6292C99.6291 60.8814 99.2463 61.2407 98.9618 61.6765C98.2276 62.6639 97.8431 63.8772 97.8715 65.1178V73.4554H94.7812V57.5445H97.8836Z" fill="white"/>
<path d="M109.879 50.8537C110.12 50.8499 110.359 50.8953 110.583 50.9874C110.806 51.0795 111.009 51.2166 111.18 51.3902C111.355 51.5583 111.494 51.7619 111.587 51.9883C111.681 52.2145 111.727 52.4582 111.722 52.7037C111.724 52.949 111.678 53.1922 111.584 53.4181C111.491 53.6439 111.353 53.8479 111.18 54.0175C111.011 54.1944 110.808 54.3347 110.585 54.4301C110.361 54.5254 110.121 54.5738 109.879 54.5724C109.645 54.572 109.413 54.522 109.198 54.4253C108.984 54.3287 108.791 54.1878 108.632 54.0112C108.461 53.8419 108.324 53.6387 108.231 53.4141C108.138 53.1895 108.09 52.9478 108.09 52.7037C108.091 52.4626 108.14 52.2243 108.233 52.0028C108.326 51.7814 108.462 51.5815 108.632 51.415C108.791 51.2384 108.984 51.0973 109.198 51.0007C109.413 50.9041 109.645 50.8541 109.879 50.8537ZM108.361 57.5448H111.451V73.4557H108.379L108.361 57.5448Z" fill="white"/>
</g>
<defs>
<clipPath id="clip0_110_531">
<rect width="457" height="127" fill="white"/>
</clipPath>
</defs>
</svg>
