<svg width="74" height="74" viewBox="0 0 74 74" fill="none" xmlns="http://www.w3.org/2000/svg">
<g clip-path="url(#clip0_110_32)">
<path d="M4.62509 5.03512C-1.19008 11.0754 8.53986e-05 17.4918 8.53986e-05 36.9846C8.53986e-05 53.1721 -2.82425 69.3997 11.9573 73.2199C16.573 74.407 57.4703 74.407 62.0799 73.2138C68.2343 71.6259 73.2416 66.6339 73.9261 57.9297C74.0217 56.7149 74.0217 17.276 73.923 16.0365C73.1953 6.76487 67.4881 1.42146 59.9678 0.339208C58.2442 0.089458 57.8989 0.015458 49.0559 4.13135e-05C17.6892 0.015458 10.8133 -1.38129 4.62509 5.03512Z" fill="url(#paint0_linear_110_32)"/>
<path d="M36.9939 9.67859C25.7983 9.67859 15.167 8.68267 11.1062 19.1043C9.42891 23.4087 9.6725 28.9988 9.6725 37.0031C9.6725 44.0269 9.44741 50.6283 11.1062 54.8988C15.1577 65.3266 25.8754 64.3276 36.9877 64.3276C47.7085 64.3276 58.7623 65.4438 62.8723 54.8988C64.5528 50.5513 64.3061 45.0444 64.3061 37.0031C64.3061 26.3286 64.895 19.4373 59.7181 14.2635C54.4764 9.02184 47.3878 9.67859 36.9816 9.67859H36.9939ZM34.5457 14.6027C57.8989 14.5657 60.8712 11.9695 59.2309 48.0353C58.6482 60.791 48.9357 59.3912 36.997 59.3912C15.2287 59.3912 14.6027 58.7683 14.6027 36.9908C14.6027 14.9603 16.3294 14.615 34.5457 14.5965V14.6027ZM51.5781 19.1383C49.7682 19.1383 48.3005 20.6059 48.3005 22.4158C48.3005 24.2258 49.7682 25.6934 51.5781 25.6934C53.388 25.6934 54.8557 24.2258 54.8557 22.4158C54.8557 20.6059 53.388 19.1383 51.5781 19.1383ZM36.9939 22.9708C29.2455 22.9708 22.9647 29.2547 22.9647 37.0031C22.9647 44.7515 29.2455 51.0323 36.9939 51.0323C44.7423 51.0323 51.02 44.7515 51.02 37.0031C51.02 29.2547 44.7423 22.9708 36.9939 22.9708ZM36.9939 27.8949C49.0343 27.8949 49.0497 46.1113 36.9939 46.1113C24.9566 46.1113 24.9381 27.8949 36.9939 27.8949Z" fill="white"/>
</g>
<defs>
<linearGradient id="paint0_linear_110_32" x1="4.76698" y1="69.2736" x2="73.5421" y2="9.74946" gradientUnits="userSpaceOnUse">
<stop stop-color="#FFDD55"/>
<stop offset="0.5" stop-color="#FF543E"/>
<stop offset="1" stop-color="#C837AB"/>
</linearGradient>
<clipPath id="clip0_110_32">
<rect width="74" height="74" fill="white"/>
</clipPath>
</defs>
</svg>
